PathFileType	4	(X/Y/Z)	/Users/itak/Documents/Research/Walk-IL/dataset/trc/00390_00012.trc
DataRate	CameraRate	NumFrames	NumMarkers	Units	OrigDataRate	OrigDataStartFrame	OrigNumFrames
100.000000	100.000000	4	55	mm	100.000000	73	589
Frame#	Time	LPSI			L3			STRN			T10			C7			CLAV			RBAK			LBAK			LSHO			LUPA			LAEL			LAOL			LWTS			LWPS			LFRA			LIFD			LHPS			LHTS			RSHO			RUPA			RAEL			RAOL			RWTS			RWPS			RFRA			RIFD			RHTS			RHPS			RBHD			LFHD			RFHD			LBHD			LHIP			RHIP			RASI			LASI			LKNE			LTHI			LANK			LTIP			LTOE			LMT5			LHEE			RKNE			RTHI			RANK			RTIP			RTOE			RMT1			RMT5			RHEE			RPSI			LMT1			*53			*54			
		X1	Y1	Z1	X2	Y2	Z2	X3	Y3	Z3	X4	Y4	Z4	X5	Y5	Z5	X6	Y6	Z6	X7	Y7	Z7	X8	Y8	Z8	X9	Y9	Z9	X10	Y10	Z10	X11	Y11	Z11	X12	Y12	Z12	X13	Y13	Z13	X14	Y14	Z14	X15	Y15	Z15	X16	Y16	Z16	X17	Y17	Z17	X18	Y18	Z18	X19	Y19	Z19	X20	Y20	Z20	X21	Y21	Z21	X22	Y22	Z22	X23	Y23	Z23	X24	Y24	Z24	X25	Y25	Z25	X26	Y26	Z26	X27	Y27	Z27	X28	Y28	Z28	X29	Y29	Z29	X30	Y30	Z30	X31	Y31	Z31	X32	Y32	Z32	X33	Y33	Z33	X34	Y34	Z34	X35	Y35	Z35	X36	Y36	Z36	X37	Y37	Z37	X38	Y38	Z38	X39	Y39	Z39	X40	Y40	Z40	X41	Y41	Z41	X42	Y42	Z42	X43	Y43	Z43	X44	Y44	Z44	X45	Y45	Z45	X46	Y46	Z46	X47	Y47	Z47	X48	Y48	Z48	X49	Y49	Z49	X50	Y50	Z50	X51	Y51	Z51	X52	Y52	Z52	X53	Y53	Z53	X54	Y54	Z54	X55	Y55	Z55	

74	0.73	927.6452026367188	974.2024536132812	-128.1438598632812	937.3444213867188	1048.004516601562	-60.72257614135742	1172.5810546875	1209.035278320312	-64.79404449462891	931.3245239257812	1148.952880859375	-66.74111175537109	957.3064575195312	1400.427368164062	-80.47515869140625	1116.26318359375	1327.16357421875	-68.78121948242188	917.7379150390625	1253.58935546875	-10.54858303070068	947.0576782226562	1360.991943359375	-184.2339782714844	1036.594116210938	1377.080078125	-232.4455261230469	1022.641906738281	1256.987670898438	-299.8447265625	1060.41064453125	1060.204345703125	-313.0250854492188	998.084228515625	1038.059326171875	-256.9049377441406	1157.50390625	856.749267578125	-236.0041351318359	1127.832885742188	835.4129028320312	-309.7060241699219	1089.102294921875	957.4117431640625	-313.7380676269531	1170.182495117188	677.3284301757812	-228.7259368896484	1145.6064453125	752.7394409179688	-293.7950744628906	1186.891357421875	761.08447265625	-245.0606384277344	1015.1630859375	1382.093872070312	82.43544006347656	1005.271423339844	1315.779174804688	141.8444061279297	1031.547729492188	1053.75634765625	179.0670928955078	1005.587463378906	1040.511596679688	90.50018310546875	1169.10205078125	846.1358642578125	136.4294128417969	1133.326538085938	832.512451171875	199.8824157714844	1063.657470703125	989.673095703125	192.0030212402344	1177.988525390625	673.58447265625	138.2176971435547	1195.310791015625	743.08251953125	153.9812469482422	1141.8779296875	743.26953125	197.9826507568359	973.4073486328125	1587.832763671875	-13.31405067443848	1151.865966796875	1603.330078125	-99.69918823242188	1103.229858398438	1608.320434570312	13.21633243560791	1020.68896484375	1578.6455078125	-166.7702331542969	1010.680419921875	959.3629760742188	-243.3726806640625	1025.842529296875	956.3975219726562	115.1939926147461	1154.813598632812	963.9006958007812	56.17204284667969	1129.68505859375	955.884033203125	-206.3846282958984	1033.615234375	466.1365051269531	-226.0530090332031	1034.390991210938	608.757080078125	-236.1998901367188	934.1768188476562	30.60583114624023	-181.0749664306641	976.9482421875	237.9325714111328	-215.9540863037109	1149.828979492188	34.56307220458984	-122.7047653198242	1061.825805664062	31.46853828430176	-194.9728698730469	897.7490844726562	29.14407920837402	-123.1560668945312	1040.742797851562	469.0157470703125	99.10495758056641	1093.972290039062	729.74365234375	115.9116592407227	980.570556640625	46.10225296020508	69.18389129638672	1043.956420898438	342.9927978515625	84.76229095458984	1157.098999023438	28.41785430908203	-4.622128963470459	1079.626708984375	34.59171295166016	-29.12893867492676	1066.024658203125	38.15676879882812	68.53324890136719	905.96142578125	32.01507568359375	20.22987747192383	936.901611328125	981.9815063476562	2.34293007850647	1070.765747070312	36.26131820678711	-91.39421081542969	nan	nan	nan	nan	nan	nan	
75	0.74	927.61181640625	974.1862182617188	-128.0750732421875	937.3280029296875	1048.005249023438	-60.6556282043457	1172.555053710938	1209.039916992188	-64.76658630371094	931.1063842773438	1148.94384765625	-66.69610595703125	957.2805786132812	1400.3955078125	-80.41106414794922	1116.245361328125	1327.185180664062	-68.75919342041016	917.7160034179688	1253.582763671875	-10.45257568359375	946.9739990234375	1360.979736328125	-184.1476287841797	1036.505126953125	1377.028198242188	-232.3587036132812	1022.581115722656	1256.985107421875	-299.7748413085938	1060.3642578125	1060.20068359375	-312.9509582519531	998.0540771484375	1038.05126953125	-256.8264770507812	1157.5185546875	856.7925415039062	-235.9365844726562	1127.8291015625	835.3999633789062	-309.5908813476562	1089.04296875	957.3871459960938	-313.6136169433594	1170.193969726562	677.2685546875	-228.6010589599609	1145.63427734375	752.7582397460938	-293.7109985351562	1186.901611328125	761.1101684570312	-244.9873046875	1015.10400390625	1382.109619140625	82.49580383300781	1005.286804199219	1315.796264648438	141.9619903564453	1031.53857421875	1053.744262695312	179.1506958007812	1005.630310058594	1040.50439453125	90.59513854980469	1169.07568359375	846.132568359375	136.4712066650391	1133.348388671875	832.5155029296875	199.960693359375	1063.680419921875	989.6622924804688	192.0716705322266	1177.973999023438	673.5658569335938	138.273681640625	1195.282470703125	743.0238037109375	154.0675964355469	1141.863037109375	743.2661743164062	198.0327606201172	973.3302001953125	1587.78662109375	-13.22391891479492	1151.795166015625	1603.344970703125	-99.66674041748047	1103.1884765625	1608.326782226562	13.15451145172119	1020.601928710938	1578.618774414062	-166.6744537353516	1010.619323730469	959.3668823242188	-243.2851715087891	1025.805297851562	956.3895874023438	115.2317123413086	1154.798461914062	963.90380859375	56.22760009765625	1129.740356445312	955.97021484375	-206.4270629882812	1033.640014648438	466.1270446777344	-226.0241088867188	1034.3955078125	608.767822265625	-236.145751953125	934.1820678710938	30.61470031738281	-181.0755767822266	976.9601440429688	237.9383850097656	-215.9344024658203	1149.83544921875	34.56513977050781	-122.6972427368164	1061.82568359375	31.46867561340332	-194.9728851318359	897.748291015625	29.14733695983887	-123.1488876342773	1040.700927734375	468.9919128417969	99.14722442626953	1093.97509765625	729.77294921875	115.9640884399414	980.5848999023438	46.10021209716797	69.18881988525391	1043.932739257812	342.9730529785156	84.7945556640625	1157.095458984375	28.42462348937988	-4.622066974639893	1079.624633789062	34.59890365600586	-29.12198257446289	1066.021240234375	38.15637969970703	68.53636169433594	905.958984375	32.01403427124023	20.22580909729004	936.8828125	981.9445190429688	2.397763729095459	1070.767944335938	36.26166915893555	-91.39227294921875	nan	nan	nan	nan	nan	nan	
76	0.75	927.5695190429688	974.1670532226562	-128.0063323974609	937.2975463867188	1048.012329101562	-60.58628845214844	1172.530517578125	1209.050903320312	-64.74297332763672	930.9628295898438	1148.939819335938	-66.64387512207031	957.2581176757812	1400.36376953125	-80.33843994140625	1116.227416992188	1327.206909179688	-68.73709106445312	917.69775390625	1253.57470703125	-10.35684394836426	946.890869140625	1360.9697265625	-184.0616302490234	1036.41357421875	1376.983764648438	-232.2744750976562	1022.5087890625	1256.979248046875	-299.6998291015625	1060.310302734375	1060.19384765625	-312.8766174316406	998.0182495117188	1038.045532226562	-256.7572326660156	1157.530883789062	856.8309936523438	-235.8636322021484	1127.817138671875	835.3886108398438	-309.4786987304688	1088.979736328125	957.3714599609375	-313.4971008300781	1170.221435546875	677.2498779296875	-228.5224761962891	1145.655883789062	752.7769165039062	-293.62646484375	1186.9150390625	761.1444702148438	-244.9142761230469	1015.05029296875	1382.12451171875	82.56204223632812	1005.308288574219	1315.811767578125	142.0808410644531	1031.5361328125	1053.729736328125	179.2371368408203	1005.686950683594	1040.501220703125	90.69292449951172	1169.05712890625	846.12744140625	136.5014495849609	1133.369262695312	832.5105590820312	200.0248565673828	1063.703125	989.6502685546875	192.1340026855469	1177.957763671875	673.5462646484375	138.3179931640625	1195.256103515625	742.9624633789062	154.13427734375	1141.842651367188	743.2578125	198.0693969726562	973.2636108398438	1587.748168945312	-13.12785816192627	1151.7265625	1603.357055664062	-99.63535308837891	1103.162475585938	1608.333740234375	13.12243556976318	1020.523620605469	1578.602172851562	-166.5818023681641	1010.546752929688	959.3634643554688	-243.2010803222656	1025.785400390625	956.3800659179688	115.2742919921875	1154.785766601562	963.9063720703125	56.28388977050781	1129.791381835938	956.0596923828125	-206.4681396484375	1033.672119140625	466.1223754882812	-225.9942474365234	1034.3994140625	608.7780151367188	-236.0864562988281	934.1873779296875	30.62579917907715	-181.0767822265625	976.9722290039062	237.9456024169922	-215.9114379882812	1149.841552734375	34.56447982788086	-122.6897048950195	1061.82568359375	31.46865653991699	-194.9729614257812	897.7474975585938	29.15067672729492	-123.141487121582	1040.662475585938	468.9692993164062	99.19280242919922	1093.985595703125	729.8007202148438	116.0163345336914	980.6049194335938	46.09946441650391	69.19408416748047	1043.908325195312	342.9541625976562	84.82503509521484	1157.091552734375	28.42978668212891	-4.621710777282715	1079.622192382812	34.60623168945312	-29.11509132385254	1066.018432617188	38.15495681762695	68.5389404296875	905.9548950195312	32.01454162597656	20.22150802612305	936.8767700195312	981.9198608398438	2.468031883239746	1070.771728515625	36.26304244995117	-91.38877105712891	nan	nan	nan	nan	nan	nan	
77	0.76	927.5195922851562	974.145751953125	-127.9390869140625	937.2556762695312	1048.021118164062	-60.51204681396484	1172.507446289062	1209.068115234375	-64.72223663330078	930.8672485351562	1148.939453125	-66.58597564697266	957.2350463867188	1400.334838867188	-80.25957489013672	1116.209106445312	1327.228637695312	-68.71492004394531	917.6829223632812	1253.564453125	-10.26344871520996	946.8094482421875	1360.961669921875	-183.9763793945312	1036.319946289062	1376.950317382812	-232.1936187744141	1022.425415039062	1256.970825195312	-299.62109375	1060.25	1060.184326171875	-312.80322265625	997.9812622070312	1038.045532226562	-256.6932678222656	1157.540161132812	856.8646240234375	-235.7872772216797	1127.796142578125	835.3792114257812	-309.3706359863281	1088.91455078125	957.3653564453125	-313.3904418945312	1170.262939453125	677.2711181640625	-228.4878234863281	1145.671264648438	752.7948608398438	-293.543701171875	1186.927490234375	761.1783447265625	-244.8370819091797	1015.000549316406	1382.135375976562	82.63330841064453	1005.332885742188	1315.822387695312	142.1964569091797	1031.540283203125	1053.713623046875	179.3239135742188	1005.752868652344	1040.501586914062	90.79103088378906	1169.045654296875	846.1198120117188	136.5225067138672	1133.389770507812	832.4990234375	200.0764465332031	1063.725341796875	989.6370849609375	192.1906280517578	1177.93896484375	673.5261840820312	138.3482818603516	1195.2373046875	742.9029541015625	154.1774597167969	1141.818725585938	743.244384765625	198.0934143066406	973.2100830078125	1587.718505859375	-13.02800464630127	1151.661376953125	1603.365844726562	-99.60327911376953	1103.14599609375	1608.339233398438	13.11310577392578	1020.453308105469	1578.594848632812	-166.4920196533203	1010.467163085938	959.354736328125	-243.1222076416016	1025.777587890625	956.3699340820312	115.3195953369141	1154.775024414062	963.907958984375	56.34080505371094	1129.82421875	956.14404296875	-206.4952697753906	1033.709716796875	466.1220703125	-225.9635162353516	1034.403686523438	608.7887573242188	-236.0242767333984	934.1932983398438	30.63850402832031	-181.0784454345703	976.9845581054688	237.9534912109375	-215.8851928710938	1149.84716796875	34.55993270874023	-122.6827621459961	1061.82568359375	31.46854782104492	-194.9729919433594	897.7467651367188	29.15417861938477	-123.1338958740234	1040.6298828125	468.9493713378906	99.24263000488281	1094.001831054688	729.824951171875	116.0695343017578	980.6283569335938	46.09981918334961	69.20020294189453	1043.882690429688	342.9363708496094	84.85411834716797	1157.087158203125	28.43232536315918	-4.620186805725098	1079.619262695312	34.61301803588867	-29.10843658447266	1066.015747070312	38.15324401855469	68.54155731201172	905.9473266601562	32.01606750488281	20.21685791015625	936.8821411132812	981.9078369140625	2.551525831222534	1070.776733398438	36.26525115966797	-91.38423156738281	nan	nan	nan	nan	nan	nan	
